<?xml version="1.0" standalone="no"?>
<!DOCTYPE svg PUBLIC "-//W3C//DTD SVG 20010904//EN"
 "http://www.w3.org/TR/2001/REC-SVG-20010904/DTD/svg10.dtd">
<svg version="1.0" xmlns="http://www.w3.org/2000/svg"
 width="512.000000pt" height="512.000000pt" viewBox="0 0 512.000000 512.000000"
 preserveAspectRatio="xMidYMid meet">
<metadata>
Created by potrace 1.11, written by Peter Selinger 2001-2013
</metadata>
<g transform="translate(0.000000,512.000000) scale(0.100000,-0.100000)"
fill="#000000" stroke="none">
<path d="M10 4282 c0 -5 9 -18 20 -30 11 -12 20 -24 20 -27 0 -8 59 -93 77
-113 7 -7 29 -39 49 -72 20 -33 41 -60 45 -60 5 0 9 -7 9 -15 0 -8 5 -15 10
-15 6 0 10 -6 10 -13 0 -8 9 -22 20 -32 11 -10 20 -24 20 -32 0 -7 4 -13 9
-13 5 0 16 -16 26 -36 9 -19 23 -38 31 -41 8 -3 14 -11 14 -17 0 -7 9 -22 20
-34 11 -12 20 -26 20 -32 0 -5 5 -10 10 -10 6 0 10 -7 10 -15 0 -8 4 -15 9
-15 5 0 13 -9 16 -20 3 -11 12 -26 19 -32 6 -7 36 -49 66 -93 30 -44 57 -82
60 -85 13 -12 44 -66 42 -72 -1 -5 2 -8 7 -8 5 0 26 -27 47 -60 22 -33 42 -60
47 -60 4 0 7 -4 7 -9 0 -8 164 -249 189 -278 6 -7 11 -16 11 -20 0 -5 11 -21
25 -36 14 -15 22 -27 18 -27 -4 0 -3 -4 3 -8 6 -4 26 -29 44 -57 19 -27 37
-51 42 -53 4 -2 8 -10 8 -18 0 -8 5 -14 10 -14 6 0 10 -7 10 -15 0 -9 7 -18
15 -21 8 -4 15 -12 15 -20 0 -7 11 -25 25 -40 14 -15 25 -33 25 -40 0 -7 4
-14 8 -16 8 -3 81 -103 107 -146 6 -10 12 -19 15 -22 3 -3 23 -31 45 -63 22
-32 52 -75 67 -95 15 -20 32 -47 38 -59 5 -13 14 -23 20 -23 5 0 10 -5 10 -11
0 -6 11 -25 25 -43 14 -18 25 -38 25 -44 0 -7 4 -12 8 -12 5 0 28 -30 52 -66
24 -37 50 -73 58 -80 7 -8 10 -14 5 -14 -4 0 -3 -4 3 -8 6 -4 39 -50 75 -102
35 -52 67 -96 71 -98 4 -2 8 -10 8 -17 0 -7 4 -15 8 -17 5 -2 28 -32 52 -68
24 -36 47 -66 52 -68 4 -2 8 -10 8 -18 0 -8 5 -14 10 -14 6 0 10 -6 10 -12 0
-7 11 -26 25 -42 14 -16 25 -32 25 -35 0 -3 11 -18 25 -33 14 -15 24 -29 23
-30 -3 -4 48 -77 79 -116 13 -15 23 -32 23 -39 0 -6 3 -13 8 -15 4 -1 20 -23
37 -48 16 -25 32 -47 35 -50 3 -3 19 -25 35 -50 16 -25 32 -47 35 -50 3 -3 10
-12 15 -21 32 -52 120 -175 127 -177 4 -2 8 -9 8 -16 0 -7 8 -21 18 -32 9 -10
34 -45 56 -76 41 -60 58 -65 74 -20 8 22 136 218 169 257 4 6 14 22 21 36 8
15 24 38 37 52 13 13 21 28 18 31 -4 3 -1 6 5 6 7 0 12 6 12 14 0 8 3 16 8 18
4 1 20 23 37 48 16 25 42 62 58 83 16 20 26 37 22 37 -3 0 5 12 19 27 14 15
23 30 20 35 -3 4 -1 8 4 8 4 0 28 30 52 68 25 37 47 69 50 72 3 3 34 48 69
100 35 52 96 142 136 200 166 241 205 301 205 310 0 6 4 10 8 10 4 0 41 51 82
113 41 61 77 114 80 117 3 3 19 26 35 52 17 27 33 48 38 48 4 0 7 7 7 15 0 8
5 15 10 15 6 0 10 6 10 13 0 7 9 23 20 35 12 12 17 22 13 22 -4 0 -3 4 4 8 15
10 83 109 83 122 0 5 4 10 8 10 5 0 17 16 28 35 10 19 23 35 28 35 5 0 7 3 3
6 -3 3 5 17 19 31 13 13 24 29 24 34 0 6 6 17 13 24 28 32 35 43 41 63 4 12
12 20 17 17 5 -4 9 0 9 8 0 7 9 23 20 35 11 12 20 24 20 27 0 3 7 15 16 28 8
12 78 114 155 227 77 113 146 213 154 223 8 9 15 19 15 22 0 6 61 96 77 112 6
7 15 22 18 33 3 11 10 20 15 20 5 0 11 8 14 18 3 9 17 29 31 44 14 15 26 31
27 35 1 11 30 55 50 77 10 10 15 23 12 28 -3 4 -1 8 4 8 5 0 24 24 42 53 19
28 38 54 42 55 4 2 8 10 8 18 0 8 4 14 9 14 5 0 13 9 16 21 4 12 14 29 23 38
14 15 111 155 195 283 l19 28 -556 0 -555 0 -63 -92 c-35 -51 -66 -101 -70
-110 -4 -10 -12 -18 -18 -18 -5 0 -10 -7 -10 -15 0 -8 -3 -15 -8 -15 -4 0 -12
-9 -17 -20 -15 -30 -129 -194 -137 -198 -5 -2 -8 -10 -8 -18 0 -8 -4 -14 -10
-14 -5 0 -10 -5 -10 -10 0 -6 -5 -16 -11 -23 -6 -7 -73 -104 -149 -217 -77
-113 -143 -209 -147 -215 -5 -5 -22 -31 -38 -57 -17 -27 -33 -48 -37 -48 -5 0
-8 -5 -8 -11 0 -6 -6 -17 -12 -24 -31 -34 -38 -45 -32 -45 4 0 -1 -10 -12 -22
-11 -13 -42 -57 -69 -98 -28 -41 -52 -77 -55 -80 -7 -7 -61 -87 -75 -110 -23
-39 -99 -145 -107 -148 -4 -2 -8 -9 -8 -14 0 -6 -18 -35 -40 -64 -22 -29 -40
-57 -40 -63 0 -5 -3 -11 -7 -13 -10 -4 -53 -65 -53 -73 0 -4 -6 -12 -12 -19
-7 -7 -47 -63 -88 -124 -41 -60 -78 -108 -82 -106 -6 4 -135 189 -197 283 -13
20 -28 38 -33 39 -4 2 -8 10 -8 18 0 8 -7 17 -15 20 -8 4 -12 10 -9 15 3 5 2
9 -3 9 -4 0 -21 23 -38 50 -16 28 -33 50 -37 50 -4 0 -8 7 -8 15 0 9 -7 18
-15 21 -8 4 -12 10 -9 15 3 5 1 9 -5 9 -5 0 -12 9 -16 19 -3 11 -21 37 -40 58
-19 21 -35 44 -35 51 0 6 -4 12 -10 12 -5 0 -10 7 -10 15 0 9 -7 18 -15 21 -8
4 -15 12 -15 20 0 7 -11 25 -25 40 -14 15 -25 33 -25 39 0 7 -7 16 -16 19 -9
4 -14 9 -11 12 3 4 1 12 -6 19 -7 7 -18 21 -25 31 -7 11 -64 93 -127 184 -63
91 -121 173 -127 184 -7 10 -19 24 -25 32 -7 7 -13 15 -13 18 0 9 -73 110 -82
114 -5 2 -8 10 -8 18 0 8 -4 14 -10 14 -5 0 -10 7 -10 15 0 8 -4 15 -10 15 -5
0 -10 7 -10 15 0 8 -4 15 -8 15 -5 0 -15 12 -23 28 -8 15 -17 29 -20 32 -3 3
-26 34 -50 70 -24 36 -47 67 -51 68 -5 2 -8 10 -8 18 0 8 -7 17 -15 20 -8 4
-15 10 -15 15 0 4 -29 50 -65 101 -35 51 -70 101 -77 111 -7 11 -26 36 -41 58
l-29 39 -559 0 c-307 0 -559 -4 -559 -8z"/>
</g>
</svg>
